SplineFontDB: 3.0
FontName: UniCons
FullName: UniCons
FamilyName: UniCons
Weight: Medium
Copyright: Created by Juergen Krausz (www.grafikrausz.at) with FontForge 2.0 (http://fontforge.sf.net)
UComments: "2011-9-24: This font resembles common User Iterface Symbols. It's free. Enjoy!" 
Version: 001.000
DefaultBaseFilename: unicons
ItalicAngle: 0
UnderlinePosition: -102
UnderlineWidth: 51
Ascent: 824
Descent: 200
LayerCount: 2
Layer: 0 0 "Back"  1
Layer: 1 0 "Zeichenebene"  0
XUID: [1021 696 68369165 4599165]
FSType: 0
OS2Version: 0
OS2_WeightWidthSlopeOnly: 0
OS2_UseTypoMetrics: 1
CreationTime: 1316869299
ModificationTime: 1316895257
PfmFamily: 81
TTFWeight: 500
TTFWidth: 5
LineGap: 94
VLineGap: 0
Panose: 5 1 6 9 7 0 0 4 0 0
OS2TypoAscent: 0
OS2TypoAOffset: 1
OS2TypoDescent: 0
OS2TypoDOffset: 1
OS2TypoLinegap: 94
OS2WinAscent: 0
OS2WinAOffset: 1
OS2WinDescent: 0
OS2WinDOffset: 1
HheadAscent: 0
HheadAOffset: 1
HheadDescent: 0
HheadDOffset: 1
OS2FamilyClass: 3072
OS2Vendor: 'PfEd'
DEI: 91125

StartChar: A
Encoding: 65 65 0
Width: 1024
VWidth: 0
Flags: W
HStem: -7 182<277.879 546.121> 292 41<548 613> 403 41<437 507> 427 48<359.828 396> 522 41<437 507> 710 119<366.668 478.716>
VStem: 396 41<475 522> 507 41<333 403 563 633> 737 93<444 515.513>
LayerCount: 2
Fore
SplineSet
412 -7 m 0xcf80
 181 -7 -6 180 -6 411 c 0
 -6 642 181 829 412 829 c 0
 643 829 830 642 830 411 c 0
 830 180 643 -7 412 -7 c 0xcf80
548 633 m 1
 548 522 l 1
 437 522 l 1
 437 444 l 1
 548 444 l 1
 548 333 l 1
 627 333 l 1
 627 444 l 1
 737 444 l 1xef80
 737 522 l 1
 627 522 l 1
 627 633 l 1
 548 633 l 1
423 710 m 0
 367 710 321 657 321 590 c 0
 321 535 353 489 396 475 c 1xdf80
 396 563 l 1
 507 563 l 1
 507 658 l 1
 489 689 458 710 423 710 c 0
209 187 m 1
 222 175 l 1
 601 175 l 1
 616 187 l 1
 616 227 615 261 613 292 c 1
 507 292 l 1
 507 403 l 1
 396 403 l 1xef80
 396 427 l 1
 367 432 341 446 320 466 c 1
 303 458 264 445 250 424 c 0
 212 369 209 298 209 187 c 1
EndSplineSet
Validated: 1
EndChar

StartChar: exclam
Encoding: 33 33 2
Width: 1024
VWidth: 0
Flags: W
HStem: 53 43<364.985 456.18> 220 43<388.879 435.342> 574 196<377.024 446.03>
LayerCount: 2
Fore
SplineSet
411 220 m 0
 394 220 378 213 367 202 c 0
 356 191 349 175 349 158 c 0
 349 141 356 126 367 115 c 0
 378 103 394 96 411 96 c 0
 428 96 443 103 454 115 c 0
 466 126 472 141 472 158 c 0
 472 175 466 191 454 202 c 0
 443 213 428 220 411 220 c 0
477 462 m 1
 477 499 469 527 457 546 c 0
 444 565 428 574 412 574 c 0
 396 574 380 565 368 546 c 0
 355 527 347 499 347 462 c 1
 355 396 366 346 377 313 c 0
 388 279 400 263 412 263 c 0
 424 263 436 279 447 313 c 0
 458 346 468 396 477 462 c 1
446 748 m 2
 814 112 l 2
 818 105 820 97 820 90 c 0
 820 70 804 53 779 53 c 2
 45 53 l 2
 20 53 4 69 4 89 c 0
 4 96 6 104 10 112 c 2
 377 748 l 2
 385 763 398 770 412 770 c 0
 424 770 437 763 446 748 c 2
EndSplineSet
Validated: 1
EndChar

StartChar: quotedbl
Encoding: 34 34 3
Width: 1024
VWidth: 0
Flags: W
HStem: -7 243<277.879 365 459 546.121> 586 243<277.879 365 459 546.121>
VStem: -6 254<276.879 545.121> 365 94<236 586> 576 254<276.879 545.121>
CounterMasks: 1 38
LayerCount: 2
Fore
SplineSet
412 829 m 0
 643 829 830 642 830 411 c 0
 830 180 643 -7 412 -7 c 0
 181 -7 -6 180 -6 411 c 0
 -6 642 181 829 412 829 c 0
576 586 m 1
 459 586 l 1
 459 236 l 1
 576 236 l 1
 576 586 l 1
365 586 m 1
 248 586 l 1
 248 236 l 1
 365 236 l 1
 365 586 l 1
EndSplineSet
Validated: 1
EndChar

StartChar: numbersign
Encoding: 35 35 4
Width: 1024
VWidth: 0
Flags: W
HStem: -7 243<277.879 546.121> 586 243<277.879 546.121>
VStem: -6 243<276.879 545.121> 587 243<276.879 545.121>
LayerCount: 2
Fore
SplineSet
587 586 m 1
 237 586 l 1
 237 236 l 1
 587 236 l 1
 587 586 l 1
412 829 m 0
 643 829 830 642 830 411 c 0
 830 180 643 -7 412 -7 c 0
 181 -7 -6 180 -6 411 c 0
 -6 642 181 829 412 829 c 0
EndSplineSet
Validated: 1
EndChar

StartChar: dollar
Encoding: 36 36 5
Width: 1024
VWidth: 0
Flags: W
HStem: -8 316<181 286> 513 316<181 286>
VStem: -6 181<316.501 505.445> 423 407<180 642>
LayerCount: 2
Fore
SplineSet
470 474 m 1
 534 411 l 1
 470 347 l 1
 516 302 l 1
 579 365 l 1
 643 302 l 1
 688 347 l 1
 625 411 l 1
 688 474 l 1
 643 520 l 1
 579 456 l 1
 516 520 l 1
 470 474 l 1
175 513 m 1
 175 308 l 1
 286 308 l 1
 423 172 l 1
 423 649 l 1
 286 513 l 1
 175 513 l 1
412 -8 m 0
 181 -8 -6 180 -6 411 c 0
 -6 642 181 829 412 829 c 0
 643 829 830 642 830 411 c 0
 830 180 643 -8 412 -8 c 0
EndSplineSet
Validated: 1
EndChar

StartChar: percent
Encoding: 37 37 6
Width: 1024
VWidth: 0
Flags: W
VStem: -6 228<316.501 505.445> 488 342<276.772 545.121>
LayerCount: 2
Fore
SplineSet
222 513 m 1
 222 308 l 1
 341 308 l 1
 488 172 l 1
 488 649 l 1
 341 513 l 1
 222 513 l 1
412 -8 m 0
 181 -8 -6 180 -6 411 c 0
 -6 642 181 829 412 829 c 0
 643 829 830 642 830 411 c 0
 830 180 643 -8 412 -8 c 0
EndSplineSet
Validated: 1
EndChar

StartChar: ampersand
Encoding: 38 38 7
Width: 1024
VWidth: 0
Flags: W
HStem: -8 316<181 286> 513 316<181 286>
VStem: -6 181<316.501 505.445> 423 87<342.207 479.43> 558 272<334.14 487.512>
LayerCount: 2
Fore
SplineSet
412 -8 m 0
 181 -8 -6 180 -6 411 c 0
 -6 642 181 829 412 829 c 0
 643 829 830 642 830 411 c 0
 830 180 643 -8 412 -8 c 0
501 533 m 1
 481 489 l 1
 499 467 510 440 510 411 c 1
 510 381 499 354 481 333 c 1
 501 288 l 1
 503 290 l 2
 537 321 558 364 558 411 c 1
 558 458 537 500 503 531 c 2
 501 533 l 1
175 513 m 1
 175 308 l 1
 286 308 l 1
 423 172 l 1
 423 649 l 1
 286 513 l 1
 175 513 l 1
EndSplineSet
Validated: 1
EndChar

StartChar: quotesingle
Encoding: 39 39 8
Width: 1024
VWidth: 0
Flags: W
HStem: 809 20G<296.5 527.5>
VStem: -6 131<316.501 505.445> 373 88<343.272 478.333> 509 48<331.851 489.592> 605 46<310.833 510.979> 699 131<297.465 524.478>
LayerCount: 2
Fore
SplineSet
412 -8 m 0
 181 -8 -6 180 -6 411 c 0
 -6 642 181 829 412 829 c 0
 643 829 830 642 830 411 c 0
 830 180 643 -8 412 -8 c 0
526 697 m 1
 509 657 l 1
 596 603 651 513 651 411 c 0
 651 309 596 219 509 165 c 1
 526 124 l 1
 630 185 699 291 699 411 c 0
 699 531 630 637 526 697 c 1
489 618 m 1
 470 576 l 1
 476 572 482 567 488 562 c 0
 531 523 557 470 557 411 c 0
 557 352 531 298 488 259 c 0
 482 254 476 250 470 245 c 1
 489 204 l 1
 501 212 512 220 522 229 c 0
 573 275 605 340 605 411 c 0
 605 482 573 546 522 593 c 0
 512 602 501 610 489 618 c 1
451 533 m 1
 431 489 l 1
 449 467 461 440 461 411 c 1
 461 381 449 354 431 333 c 1
 451 288 l 1
 453 290 l 2
 487 321 509 364 509 411 c 1
 509 458 487 500 453 531 c 2
 451 533 l 1
125 513 m 1
 125 308 l 1
 236 308 l 1
 373 172 l 1
 373 649 l 1
 236 513 l 1
 125 513 l 1
EndSplineSet
Validated: 1
EndChar

StartChar: parenleft
Encoding: 40 40 9
Width: 1024
VWidth: 0
Flags: W
HStem: -7 836<181 643>
VStem: 573 257<276.879 545.121>
LayerCount: 2
Fore
SplineSet
152 411 m 1
 573 237 l 1
 573 585 l 1
 152 411 l 1
412 829 m 0
 643 829 830 642 830 411 c 0
 830 180 643 -7 412 -7 c 0
 181 -7 -6 180 -6 411 c 0
 -6 642 181 829 412 829 c 0
EndSplineSet
Validated: 1
EndChar

StartChar: parenright
Encoding: 41 41 10
Width: 1024
VWidth: 0
Flags: W
HStem: -7 836<181 643>
VStem: -6 258<276.879 545.121>
LayerCount: 2
Fore
SplineSet
672 411 m 1
 252 585 l 1
 252 237 l 1
 672 411 l 1
412 829 m 0
 643 829 830 642 830 411 c 0
 830 180 643 -7 412 -7 c 0
 181 -7 -6 180 -6 411 c 0
 -6 642 181 829 412 829 c 0
EndSplineSet
Validated: 1
EndChar

StartChar: asterisk
Encoding: 42 42 11
Width: 1024
VWidth: 0
Flags: W
HStem: -7 836<181 643>
VStem: -6 836<180 642>
LayerCount: 2
Fore
SplineSet
412 -7 m 0
 181 -7 -6 180 -6 411 c 0
 -6 642 181 829 412 829 c 0
 643 829 830 642 830 411 c 0
 830 180 643 -7 412 -7 c 0
412 709 m 1
 327 530 l 1
 130 505 l 1
 274 368 l 1
 238 173 l 1
 412 268 l 1
 586 173 l 1
 550 368 l 1
 694 505 l 1
 497 530 l 1
 412 709 l 1
EndSplineSet
Validated: 1
EndChar

StartChar: plus
Encoding: 43 43 12
Width: 1024
VWidth: 0
Flags: W
HStem: -7 181<358.733 465.267> 647 182<358.733 465.267>
VStem: -6 182<357.733 464.267> 648 182<357.733 464.267>
LayerCount: 2
Fore
SplineSet
350 647 m 1
 350 473 l 1
 176 473 l 1
 176 349 l 1
 350 349 l 1
 350 174 l 1
 474 174 l 1
 474 349 l 1
 648 349 l 1
 648 473 l 1
 474 473 l 1
 474 647 l 1
 350 647 l 1
412 -7 m 0
 181 -7 -6 180 -6 411 c 0
 -6 642 181 829 412 829 c 0
 643 829 830 642 830 411 c 0
 830 180 643 -7 412 -7 c 0
EndSplineSet
Validated: 1
EndChar

StartChar: comma
Encoding: 44 44 13
Width: 1024
VWidth: 0
Flags: W
HStem: -7 162<277.879 546.121> 480 25<241 325.48> 632 20G<373.551 400> 671 158<362 546.121>
VStem: -6 216<276.879 518> 375 25<553.082 633> 611 219<276.879 545.121>
LayerCount: 2
Fore
SplineSet
412 829 m 0
 643 829 830 642 830 411 c 0
 830 180 643 -7 412 -7 c 0
 181 -7 -6 180 -6 411 c 0
 -6 642 181 829 412 829 c 0
228 505 m 1
 365 514 l 1
 375 652 l 1
 400 633 l 1
 406 466 l 1
 241 480 l 1
 228 505 l 1
611 671 m 1
 362 671 l 1
 210 518 l 1
 210 155 l 1
 611 155 l 1
 611 671 l 1
EndSplineSet
Validated: 1
EndChar

StartChar: hyphen
Encoding: 45 45 14
Width: 1024
VWidth: 0
Flags: W
HStem: -8 357<277.879 546.121> 473 356<277.879 546.121>
VStem: -6 182<357.716 464.267> 648 182<357.716 464.267>
LayerCount: 2
Fore
SplineSet
412 -8 m 0
 181 -8 -6 180 -6 411 c 0
 -6 642 181 829 412 829 c 0
 643 829 830 642 830 411 c 0
 830 180 643 -8 412 -8 c 0
648 473 m 1
 176 473 l 1
 176 349 l 1
 648 349 l 1
 648 473 l 1
EndSplineSet
Validated: 1
EndChar

StartChar: period
Encoding: 46 46 15
Width: 1024
VWidth: 0
Flags: W
HStem: 532 17<532.788 564.843> 653 176<290.87 357.998>
LayerCount: 2
Fore
SplineSet
412 829 m 0
 643 829 830 642 830 411 c 0
 830 180 643 -7 412 -7 c 0
 181 -7 -6 180 -6 411 c 0
 -6 642 181 829 412 829 c 0
170 618 m 2
 156 615 146 601 146 586 c 0
 146 585 146 583 146 582 c 2
 152 532 l 1
 193 158 l 1
 645 257 l 1
 726 568 l 1
 609 543 l 1
 600 632 l 1
 377 583 l 1
 358 631 l 2
 351 648 344 653 333 653 c 0
 331 653 329 653 326 653 c 0
 325 653 323 653 322 653 c 2
 170 618 l 2
564 549 m 1
 566 532 l 1
 288 472 l 1
 226 241 l 1
 226 270 l 1
 262 500 l 1
 564 549 l 1
EndSplineSet
Validated: 1
EndChar

StartChar: slash
Encoding: 47 47 16
Width: 1024
VWidth: 0
Flags: W
HStem: 636 193<277.879 546.121>
VStem: 637 193<276.879 545.121>
LayerCount: 2
Fore
SplineSet
412 -7 m 0
 181 -7 -6 180 -6 411 c 0
 -6 642 181 829 412 829 c 0
 643 829 830 642 830 411 c 0
 830 180 643 -7 412 -7 c 0
271 636 m 1
 271 485 l 1
 336 488 l 1
 336 572 l 1
 573 572 l 1
 573 334 l 1
 492 334 l 1
 489 270 l 1
 637 270 l 1
 637 636 l 1
 271 636 l 1
291 386 m 1
 146 241 l 1
 242 145 l 1
 387 290 l 1
 441 235 l 1
 465 464 l 1
 236 441 l 1
 291 386 l 1
EndSplineSet
Validated: 1
EndChar

StartChar: zero
Encoding: 48 48 17
Width: 1024
VWidth: 0
Flags: W
VStem: 248 117<236 586> 459 117<236 586>
LayerCount: 2
Fore
SplineSet
576 586 m 1
 576 236 l 1
 459 236 l 1
 459 586 l 1
 576 586 l 1
365 586 m 1
 365 236 l 1
 248 236 l 1
 248 586 l 1
 365 586 l 1
EndSplineSet
Validated: 1
EndChar

StartChar: one
Encoding: 49 49 18
Width: 1024
VWidth: 0
Flags: W
HStem: 236 350<237 587>
VStem: 237 350<236 586>
LayerCount: 2
Fore
SplineSet
587 586 m 1
 587 236 l 1
 237 236 l 1
 237 586 l 1
 587 586 l 1
EndSplineSet
Validated: 1
EndChar

StartChar: two
Encoding: 50 50 19
Width: 1024
VWidth: 0
Flags: W
LayerCount: 2
Fore
SplineSet
152 411 m 1
 573 585 l 1
 573 237 l 1
 152 411 l 1
EndSplineSet
Validated: 1
EndChar

StartChar: three
Encoding: 51 51 20
Width: 1024
VWidth: 0
Flags: W
LayerCount: 2
Fore
SplineSet
672 411 m 1
 252 237 l 1
 252 585 l 1
 672 411 l 1
EndSplineSet
Validated: 1
EndChar

StartChar: four
Encoding: 52 52 21
Width: 1024
VWidth: 0
Flags: W
HStem: 689 20G<402.503 421.497>
LayerCount: 2
Fore
SplineSet
412 709 m 1
 497 530 l 1
 694 505 l 1
 550 368 l 1
 586 173 l 1
 412 268 l 1
 238 173 l 1
 274 368 l 1
 130 505 l 1
 327 530 l 1
 412 709 l 1
EndSplineSet
Validated: 1
EndChar

StartChar: five
Encoding: 53 53 22
Width: 1024
VWidth: 0
Flags: W
HStem: 349 124<176 350 474 648> 627 20G<350 474>
VStem: 350 124<174 349 473 647>
LayerCount: 2
Fore
SplineSet
350 647 m 1
 474 647 l 1
 474 473 l 1
 648 473 l 1
 648 349 l 1
 474 349 l 1
 474 174 l 1
 350 174 l 1
 350 349 l 1
 176 349 l 1
 176 473 l 1
 350 473 l 1
 350 647 l 1
EndSplineSet
Validated: 1
EndChar

StartChar: six
Encoding: 54 54 23
Width: 1024
VWidth: 0
Flags: W
HStem: 155 21G<210 611> 651 20G<342.131 611>
VStem: 210 401<155 466> 406 205<466 633>
LayerCount: 2
Fore
SplineSet
228 505 m 1xd0
 241 480 l 1
 406 466 l 1
 400 633 l 1
 375 652 l 1
 365 514 l 1
 228 505 l 1xd0
611 671 m 1
 611 155 l 1
 210 155 l 1
 210 518 l 1xe0
 362 671 l 1
 611 671 l 1
EndSplineSet
Validated: 1
EndChar

StartChar: seven
Encoding: 55 55 24
Width: 1024
VWidth: 0
Flags: W
HStem: 349 124<176 648>
LayerCount: 2
Fore
SplineSet
648 473 m 1
 648 349 l 1
 176 349 l 1
 176 473 l 1
 648 473 l 1
EndSplineSet
Validated: 1
EndChar

StartChar: eight
Encoding: 56 56 25
Width: 1024
VWidth: 0
Flags: W
HStem: 633 20G<235.143 338.5 508.98 602.022>
LayerCount: 2
Fore
SplineSet
170 618 m 2
 322 653 l 2
 323 653 325 653 326 653 c 0
 329 653 331 653 333 653 c 0
 344 653 351 648 358 631 c 2
 377 583 l 1
 600 632 l 1
 609 543 l 1
 726 568 l 1
 645 257 l 1
 193 158 l 1
 152 532 l 1
 146 582 l 2
 146 583 146 585 146 586 c 0
 146 601 156 615 170 618 c 2
564 549 m 1
 262 500 l 1
 226 270 l 1
 226 241 l 1
 288 472 l 1
 566 532 l 1
 564 549 l 1
EndSplineSet
Validated: 1
EndChar

StartChar: nine
Encoding: 57 57 26
Width: 1024
VWidth: 0
Flags: W
HStem: 270 64<492 573> 572 64<336 573>
VStem: 271 65<488 572> 573 64<334 572>
LayerCount: 2
Fore
SplineSet
271 636 m 1
 637 636 l 1
 637 270 l 1
 489 270 l 1
 492 334 l 1
 573 334 l 1
 573 572 l 1
 336 572 l 1
 336 488 l 1
 271 485 l 1
 271 636 l 1
291 386 m 1
 236 441 l 1
 465 464 l 1
 441 235 l 1
 387 290 l 1
 242 145 l 1
 146 241 l 1
 291 386 l 1
EndSplineSet
Validated: 1
EndChar

StartChar: colon
Encoding: 58 58 27
Width: 1024
VWidth: 0
Flags: W
HStem: 0 21G<43 781> 802 20G<43 781>
VStem: 1 822<12.3806 809.619>
LayerCount: 2
Fore
SplineSet
59 822 m 2
 765 822 l 2
 797 822 823 796 823 764 c 2
 823 58 l 2
 823 26 797 0 765 0 c 2
 59 0 l 2
 27 0 1 26 1 58 c 2
 1 764 l 2
 1 796 27 822 59 822 c 2
EndSplineSet
Validated: 1
EndChar

StartChar: semicolon
Encoding: 59 59 28
Width: 1024
VWidth: 0
Flags: W
LayerCount: 2
Fore
SplineSet
446 748 m 2
 814 112 l 2
 818 105 820 97 820 90 c 0
 820 70 804 53 779 53 c 2
 45 53 l 2
 20 53 4 69 4 89 c 0
 4 96 6 104 10 112 c 2
 377 748 l 2
 385 763 398 770 412 770 c 0
 424 770 437 763 446 748 c 2
EndSplineSet
Validated: 1
EndChar

StartChar: less
Encoding: 60 60 29
Width: 1024
VWidth: 0
Flags: W
HStem: 809 20G<296.5 527.5>
VStem: -6 836<180 642>
LayerCount: 2
Fore
SplineSet
412 -7 m 0
 181 -7 -6 180 -6 411 c 0
 -6 642 181 829 412 829 c 0
 643 829 830 642 830 411 c 0
 830 180 643 -7 412 -7 c 0
464 670 m 1
 222 411 l 1
 464 152 l 1
 542 245 l 1
 385 411 l 1
 542 577 l 1
 464 670 l 1
EndSplineSet
Validated: 1
EndChar

StartChar: equal
Encoding: 61 61 30
Width: 1024
VWidth: 0
Flags: W
HStem: -7 233<348.309 546.121> 301 73<347 637> 312 51<195.385 275.668> 448 73<347 637> 459 51<195.385 275.668> 596 233<348.309 546.121>
VStem: -6 193<374.944 447.056> 284 63<226.125 300.791 374.54 447.46 521.209 595.875> 637 193<378.82 443.18>
LayerCount: 2
Fore
SplineSet
412 -7 m 0x8780
 181 -7 -6 180 -6 411 c 0
 -6 642 181 829 412 829 c 0
 643 829 830 642 830 411 c 0
 830 180 643 -7 412 -7 c 0x8780
347 596 m 1
 347 521 l 1
 637 521 l 1x9780
 637 596 l 1
 347 596 l 1
347 448 m 1
 347 374 l 1
 637 374 l 1xd780
 637 448 l 1
 347 448 l 1
347 301 m 1
 347 226 l 1
 637 226 l 1
 637 301 l 1
 347 301 l 1
236 607 m 0
 209 607 187 585 187 559 c 0
 187 532 209 510 236 510 c 0x8f80
 262 510 284 532 284 559 c 0
 284 585 262 607 236 607 c 0
236 459 m 0
 209 459 187 438 187 411 c 0
 187 384 209 363 236 363 c 0xaf80
 262 363 284 384 284 411 c 0
 284 438 262 459 236 459 c 0
236 312 m 0
 209 312 187 290 187 263 c 0
 187 237 209 215 236 215 c 0
 262 215 284 237 284 263 c 0
 284 290 262 312 236 312 c 0
EndSplineSet
Validated: 1
EndChar

StartChar: greater
Encoding: 62 62 31
Width: 1024
VWidth: 0
Flags: W
HStem: 809 20G<296.5 527.5>
VStem: -6 836<180 642>
LayerCount: 2
Fore
SplineSet
412 829 m 0
 643 829 830 642 830 411 c 0
 830 180 643 -7 412 -7 c 0
 181 -7 -6 180 -6 411 c 0
 -6 642 181 829 412 829 c 0
360 152 m 1
 602 411 l 1
 360 670 l 1
 282 577 l 1
 440 411 l 1
 282 245 l 1
 360 152 l 1
EndSplineSet
Validated: 1
EndChar

StartChar: question
Encoding: 63 63 32
Width: 1024
VWidth: 0
Flags: W
HStem: -7 158<363.903 456.841> 290 42<360.75 458.75> 683 146<316.335 509.39>
VStem: 360 96<505.008 560.479> 584 246<295.5 544.749>
LayerCount: 2
Fore
SplineSet
411 829 m 0
 642 829 830 642 830 411 c 0
 830 180 642 -7 411 -7 c 0
 180 -7 -7 180 -7 411 c 0
 -7 642 180 829 411 829 c 0
461 332 m 1
 461 349 464 364 470 375 c 0
 475 386 489 400 510 419 c 0
 540 444 560 466 570 484 c 0
 579 502 584 521 584 540 c 0
 584 587 565 624 527 652 c 0
 499 673 463 683 417 683 c 0
 359 683 315 668 287 639 c 0
 259 609 243 570 239 521 c 1
 360 505 l 1
 363 531 369 550 379 561 c 0
 388 571 400 577 415 577 c 0
 429 577 439 573 446 566 c 0
 453 559 456 550 456 537 c 0
 456 525 448 511 431 496 c 0
 399 467 379 447 370 436 c 0
 361 425 354 412 349 398 c 0
 345 384 342 367 342 345 c 2
 342 332 l 1
 461 332 l 1
410 290 m 0
 372 290 340 259 340 221 c 0
 340 182 372 151 410 151 c 0
 448 151 479 182 479 221 c 0
 479 259 448 290 410 290 c 0
EndSplineSet
Validated: 1
EndChar

StartChar: at
Encoding: 64 64 33
Width: 1024
VWidth: 0
Flags: W
HStem: -7 213<277.879 546.121> 616 213<277.879 546.121>
VStem: -6 131<276.879 545.121> 699 131<276.879 545.121>
LayerCount: 2
Fore
SplineSet
412 -7 m 0
 181 -7 -6 180 -6 411 c 0
 -6 642 181 829 412 829 c 0
 643 829 830 642 830 411 c 0
 830 180 643 -7 412 -7 c 0
699 616 m 1
 125 616 l 1
 125 206 l 1
 699 206 l 1
 699 616 l 1
615 567 m 1
 412 364 l 1
 209 567 l 1
 615 567 l 1
650 290 m 1
 528 411 l 1
 650 532 l 1
 650 290 l 1
209 255 m 1
 330 376 l 1
 412 295 l 1
 494 376 l 1
 615 255 l 1
 209 255 l 1
174 532 m 1
 296 411 l 1
 174 290 l 1
 174 532 l 1
EndSplineSet
Validated: 1
EndChar

StartChar: B
Encoding: 66 66 34
Width: 1024
VWidth: 0
Flags: W
HStem: -8 145<367.219 456.781> 261 13<385.226 438.774> 679 150<333.914 490.086>
VStem: -6 165<276.772 336.735> 665 165<276.772 336.735>
LayerCount: 2
Fore
SplineSet
412 261 m 0
 378 261 350 233 350 199 c 0
 350 165 378 137 412 137 c 0
 446 137 474 165 474 199 c 0
 474 233 446 261 412 261 c 0
412 -8 m 0
 181 -8 -6 180 -6 411 c 0
 -6 642 181 829 412 829 c 0
 643 829 830 642 830 411 c 0
 830 180 643 -8 412 -8 c 0
665 315 m 1
 632 350 595 374 585 420 c 2
 549 587 l 2
 536 645 474 679 412 679 c 0
 350 679 288 645 275 587 c 2
 239 420 l 2
 229 374 192 350 159 315 c 1
 159 301 159 287 159 274 c 1
 665 274 l 1
 665 287 665 301 665 315 c 1
EndSplineSet
Validated: 1
EndChar

StartChar: C
Encoding: 67 67 35
Width: 1024
VWidth: 0
Flags: W
LayerCount: 2
Fore
SplineSet
412 -7 m 0
 181 -7 -6 180 -6 411 c 0
 -6 642 181 829 412 829 c 0
 643 829 830 642 830 411 c 0
 830 180 643 -7 412 -7 c 0
194 321 m 1
 386 178 l 1
 640 598 l 1
 489 598 l 1
 350 364 l 1
 268 429 l 1
 194 321 l 1
EndSplineSet
Validated: 1
EndChar

StartChar: D
Encoding: 68 68 36
Width: 1024
VWidth: 0
Flags: W
HStem: -7 163<277.879 546.121> 213 50<228.586 345.837 464 506 568 609> 334 47<272 335.621> 431 49<462 484.528> 450 49<239.609 345.437> 531 21<239.614 284.881 536.119 581.493> 728 101<213.5 609>
VStem: -6 175<276.879 545.121> 213 19<560.953 658> 292 20<559.861 658> 354 65<264.779 328.123 388.854 443.851> 506 62<263 445> 509 20<559.861 658> 589 20<560.127 658> 655 175<276.879 545.121>
LayerCount: 2
Fore
SplineSet
412 -7 m 0xe7e6
 181 -7 -6 180 -6 411 c 0
 -6 642 181 829 412 829 c 0
 643 829 830 642 830 411 c 0
 830 180 643 -7 412 -7 c 0xe7e6
169 658 m 1
 169 156 l 1
 655 156 l 1
 655 658 l 1
 609 658 l 1
 609 580 l 2
 609 553 586 531 559 531 c 0
 531 531 509 553 509 580 c 2
 509 658 l 1xe7ee
 312 658 l 1
 312 580 l 2
 312 553 290 531 262 531 c 0
 235 531 213 553 213 580 c 2
 213 658 l 1
 169 658 l 1
262 728 m 0
 246 728 232 715 232 698 c 2
 232 582 l 2
 232 565 246 552 262 552 c 0
 279 552 292 565 292 582 c 2
 292 698 l 2
 292 715 279 728 262 728 c 0
559 728 m 0
 542 728 529 715 529 698 c 2
 529 582 l 2
 529 565 542 552 559 552 c 0
 575 552 589 565 589 582 c 2
 589 698 l 2
 589 715 575 728 559 728 c 0
367 364 m 1
 384 360 397 351 405 339 c 0
 414 327 419 311 419 293 c 0
 419 265 409 244 390 229 c 0
 371 215 343 207 306 207 c 0
 293 207 280 211 267 213 c 0
 254 215 241 217 228 221 c 1
 228 277 l 1
 240 270 252 265 264 262 c 0
 276 258 288 257 300 257 c 0
 317 257 331 260 340 267 c 0
 349 273 354 283 354 295 c 0
 354 308 349 318 339 324 c 0
 330 331 316 334 298 334 c 2
 272 334 l 1
 272 381 l 1
 299 381 l 2
 315 381 328 384 336 390 c 0
 344 395 348 404 348 416 c 0
 348 426 344 435 336 441 c 0
 328 447 317 450 303 450 c 0
 292 450 282 448 271 446 c 0
 260 443 250 439 239 434 c 1
 239 487 l 1
 252 491 265 494 277 496 c 0
 290 498 302 499 315 499 c 0xefe6
 347 499 372 493 388 481 c 0
 405 469 413 451 413 427 c 0
 413 411 409 397 401 387 c 0
 393 376 382 369 367 364 c 1
464 263 m 1
 506 263 l 1
 506 445 l 1
 462 431 l 1
 462 480 l 1
 506 494 l 1
 568 494 l 1
 568 263 l 1xf7f6
 609 263 l 1
 609 213 l 1
 464 213 l 1
 464 263 l 1
EndSplineSet
Validated: 1
EndChar

StartChar: E
Encoding: 69 69 37
Width: 1024
VWidth: 0
Flags: W
HStem: -7 157<379.82 444.18> 356 110<368.037 455.963> 672 157<379.82 444.18>
VStem: -6 157<378.82 443.18> 357 110<367.037 454.963> 673 157<378.82 443.18>
CounterMasks: 1 fc
LayerCount: 2
Fore
SplineSet
412 -7 m 0
 181 -7 -6 180 -6 411 c 0
 -6 642 181 829 412 829 c 0
 643 829 830 642 830 411 c 0
 830 180 643 -7 412 -7 c 0
151 445 m 1
 151 376 l 1
 216 376 250 359 250 329 c 0
 250 309 235 282 203 251 c 1
 252 202 l 1
 283 233 310 249 330 249 c 0
 360 249 378 215 378 150 c 1
 446 150 l 1
 446 215 464 249 494 249 c 0
 514 249 541 233 572 202 c 1
 621 251 l 1
 590 282 574 309 574 329 c 0
 574 359 608 377 673 377 c 1
 673 445 l 1
 608 445 574 462 574 493 c 0
 574 513 590 540 621 571 c 1
 572 620 l 1
 541 588 514 573 494 573 c 0
 464 573 446 606 446 672 c 1
 378 672 l 1
 378 606 360 573 330 573 c 0
 310 573 283 588 252 620 c 1
 203 571 l 1
 235 540 250 513 250 493 c 0
 250 462 216 445 151 445 c 1
412 466 m 0
 442 466 467 441 467 411 c 0
 467 381 442 356 412 356 c 0
 382 356 357 381 357 411 c 0
 357 441 382 466 412 466 c 0
EndSplineSet
Validated: 1
EndChar

StartChar: F
Encoding: 70 70 38
Width: 1024
VWidth: 0
Flags: W
HStem: -8 259<294.133 472.452> 318 298<308.832 462.062> 683 146<294.446 477.658>
VStem: -6 175<376.002 544.752> 236 298<390.623 544> 601 229<375.877 545.83>
LayerCount: 2
Fore
SplineSet
412 -8 m 0
 181 -8 -6 180 -6 411 c 0
 -6 642 181 829 412 829 c 0
 643 829 830 642 830 411 c 0
 830 180 643 -8 412 -8 c 0
255 639 m 0
 199 596 169 532 169 467 c 0
 169 421 184 376 213 337 c 0
 256 281 320 251 385 251 c 0
 410 251 436 256 460 265 c 1
 555 139 l 1
 655 214 l 1
 559 340 l 1
 587 377 601 422 601 467 c 0
 601 512 586 558 557 597 c 0
 515 653 450 683 385 683 c 0
 340 683 294 668 255 639 c 0
295 585 m 0
 322 606 354 616 385 616 c 0
 430 616 474 595 504 557 c 0
 524 530 534 498 534 467 c 0
 534 422 513 378 475 348 c 0
 448 328 417 318 385 318 c 0
 340 318 296 339 267 377 c 0
 246 404 236 436 236 467 c 0
 236 512 257 556 295 585 c 0
EndSplineSet
Validated: 1
EndChar

StartChar: G
Encoding: 71 71 39
Width: 1024
VWidth: 0
Flags: W
HStem: -7 218<369.238 454.762> 316 42<217 321 360 464 503 607> 463 43<217 321 360 464 503 607> 611 218<369.238 454.762>
VStem: -6 223<368.238 453.762> 321 39<211 316 358 463 506 611> 464 39<211 316 358 463 506 611> 607 223<368.238 453.762>
LayerCount: 2
Fore
SplineSet
412 -7 m 0
 181 -7 -6 180 -6 411 c 0
 -6 642 181 829 412 829 c 0
 643 829 830 642 830 411 c 0
 830 180 643 -7 412 -7 c 0
217 611 m 1
 217 506 l 1
 321 506 l 1
 321 611 l 1
 217 611 l 1
360 611 m 1
 360 506 l 1
 464 506 l 1
 464 611 l 1
 360 611 l 1
503 611 m 1
 503 506 l 1
 607 506 l 1
 607 611 l 1
 503 611 l 1
217 463 m 1
 217 358 l 1
 321 358 l 1
 321 463 l 1
 217 463 l 1
360 463 m 1
 360 358 l 1
 464 358 l 1
 464 463 l 1
 360 463 l 1
503 463 m 1
 503 358 l 1
 607 358 l 1
 607 463 l 1
 503 463 l 1
217 316 m 1
 217 211 l 1
 321 211 l 1
 321 316 l 1
 217 316 l 1
360 316 m 1
 360 211 l 1
 464 211 l 1
 464 316 l 1
 360 316 l 1
503 316 m 1
 503 211 l 1
 607 211 l 1
 607 316 l 1
 503 316 l 1
EndSplineSet
Validated: 1
EndChar

StartChar: H
Encoding: 72 72 40
Width: 1024
VWidth: 0
Flags: W
HStem: -8 210<277.879 338 486 546.121> 809 20G<296.5 527.5>
VStem: -6 220<276.772 391> 338 148<202 389> 610 220<276.772 391>
CounterMasks: 1 38
LayerCount: 2
Fore
SplineSet
412 -8 m 0
 181 -8 -6 180 -6 411 c 0
 -6 642 181 829 412 829 c 0
 643 829 830 642 830 411 c 0
 830 180 643 -8 412 -8 c 0
610 391 m 1
 412 562 l 1
 214 391 l 1
 214 202 l 1
 338 202 l 1
 338 389 l 1
 486 389 l 1
 486 202 l 1
 610 202 l 1
 610 391 l 1
412 690 m 1
 115 433 l 1
 156 396 l 1
 412 616 l 1
 668 396 l 1
 709 433 l 1
 412 690 l 1
EndSplineSet
Validated: 1
EndChar

StartChar: I
Encoding: 73 73 41
Width: 1024
VWidth: 0
Flags: W
HStem: 0 119<263 561> 231 127<284 362> 470 69<350.217 473.783> 726 96<351.115 472.885>
VStem: 1 318<570.326 693.89> 479 344<231 470> 505 318<570.326 693.89>
LayerCount: 2
Fore
SplineSet
59 822 m 2xfa
 765 822 l 2
 797 822 823 796 823 764 c 2
 823 58 l 2
 823 26 797 0 765 0 c 2
 59 0 l 2
 27 0 1 26 1 58 c 2
 1 764 l 2
 1 796 27 822 59 822 c 2xfa
505 632 m 0
 505 657 496 681 479 698 c 0
 461 716 437 726 412 726 c 0
 387 726 363 716 345 698 c 0
 328 681 319 657 319 632 c 0
 319 608 328 584 345 566 c 0
 363 549 387 539 412 539 c 0
 437 539 461 549 479 566 c 0xfc
 496 584 505 608 505 632 c 0
362 358 m 1
 362 231 l 1
 263 231 l 1
 263 119 l 1
 561 119 l 1
 561 231 l 1
 479 231 l 1
 479 470 l 1
 284 470 l 1
 284 358 l 1
 362 358 l 1
EndSplineSet
Validated: 1
EndChar

StartChar: J
Encoding: 74 74 42
Width: 1024
VWidth: 0
Flags: W
HStem: -7 226<276.879 545.121>
VStem: -7 140<324.573 497.427> 689 140<324.573 497.512>
LayerCount: 2
Fore
SplineSet
325 602 m 2
 273 602 225 581 190 546 c 0
 155 511 133 463 133 411 c 0
 133 359 155 311 190 276 c 0
 225 241 273 219 325 219 c 2
 497 219 l 2
 549 219 597 241 632 276 c 0
 667 311 689 359 689 411 c 0
 689 462 668 509 635 543 c 0
 602 578 556 600 505 602 c 1
 547 551 l 1
 505 520 l 1
 533 518 558 505 577 485 c 0
 595 466 606 439 606 411 c 0
 606 381 594 354 574 334 c 0
 554 314 527 302 497 302 c 2
 325 302 l 2
 295 302 268 314 248 334 c 0
 228 354 216 381 216 411 c 0
 216 441 228 468 248 488 c 0
 268 508 295 520 325 520 c 2
 336 520 l 1
 336 450 l 1
 486 561 l 1
 336 673 l 1
 336 602 l 1
 325 602 l 2
411 829 m 0
 642 829 829 642 829 411 c 0
 829 180 642 -7 411 -7 c 0
 180 -7 -7 180 -7 411 c 0
 -7 642 180 829 411 829 c 0
EndSplineSet
Validated: 1
EndChar

StartChar: K
Encoding: 75 75 43
Width: 1024
VWidth: 0
Flags: W
HStem: -7 171<277.879 526.484> 228 168<312.925 383.154> 460 135<479.642 534> 684 145<296.5 546.508>
VStem: -6 180<276.879 453.762> 296 105<310.423 386.146> 308 80<232.605 342.392> 474 87<484 589.105> 650 180<484 545.121>
LayerCount: 2
Fore
SplineSet
412 -7 m 0xf980
 181 -7 -6 180 -6 411 c 0
 -6 642 181 829 412 829 c 0
 643 829 830 642 830 411 c 0
 830 180 643 -7 412 -7 c 0xf980
385 460 m 1
 204 460 l 2
 187 460 174 447 174 430 c 2
 174 194 l 2
 174 177 187 164 204 164 c 2
 505 164 l 2
 521 164 535 177 535 194 c 2
 535 430 l 2
 535 447 521 460 505 460 c 2
 474 460 l 1
 474 551 l 1
 474 575 493 595 517 595 c 0
 541 595 561 575 561 551 c 2
 561 484 l 1
 650 484 l 1
 650 551 l 2
 650 624 590 684 517 684 c 0
 445 684 385 624 385 551 c 1
 385 460 l 1
348 228 m 1
 326 228 308 247 308 269 c 2
 308 310 l 1xfb80
 300 319 296 330 296 343 c 0
 296 372 319 396 348 396 c 0
 377 396 401 372 401 343 c 0xfd80
 401 330 396 319 388 310 c 1
 388 269 l 2xfb80
 388 247 370 228 348 228 c 1
EndSplineSet
Validated: 1
EndChar

StartChar: L
Encoding: 76 76 44
Width: 1024
VWidth: 0
Flags: W
HStem: -7 201<277.879 546.121> 259 167<376.925 447.075> 491 111<369.895 445.358> 691 138<337.242 477.219>
VStem: -6 220<276.879 485.031> 360 104<340.424 416.485> 364 87<340.424 373.391 491 596.105> 372 80<263.393 373.391> 610 220<276.879 485.031>
LayerCount: 2
Fore
SplineSet
412 -7 m 0xf880
 181 -7 -6 180 -6 411 c 0
 -6 642 181 829 412 829 c 0
 643 829 830 642 830 411 c 0
 830 180 643 -7 412 -7 c 0xf880
412 259 m 0
 390 259 372 277 372 299 c 2
 372 340 l 1xf980
 364 349 360 361 360 374 c 0
 360 403 383 426 412 426 c 0
 441 426 464 403 464 374 c 0xfc80
 464 361 460 349 452 340 c 1
 452 299 l 2xf980
 452 277 434 259 412 259 c 0
275 491 m 1
 244 491 l 2
 227 491 214 477 214 461 c 2
 214 224 l 2
 214 208 227 194 244 194 c 2
 580 194 l 2
 597 194 610 208 610 224 c 2
 610 461 l 2
 610 477 597 491 580 491 c 2
 540 491 l 1
 540 558 l 2
 540 631 480 691 408 691 c 0
 335 691 275 631 275 558 c 2
 275 491 l 1
451 491 m 1xfa80
 364 491 l 1
 364 558 l 2
 364 582 384 602 408 602 c 0
 432 602 451 582 451 558 c 2
 451 491 l 1xfa80
EndSplineSet
Validated: 1
EndChar

StartChar: M
Encoding: 77 77 45
Width: 1024
VWidth: 0
Flags: W
HStem: 595 234<277.181 545.758>
VStem: -6 187<396.691 538.441> 643 187<396.691 538.441>
LayerCount: 2
Fore
SplineSet
412 -7 m 0
 181 -7 -6 180 -6 411 c 0
 -6 642 181 829 412 829 c 0
 643 829 830 642 830 411 c 0
 830 180 643 -7 412 -7 c 0
412 516 m 1
 383 569 354 595 297 595 c 0
 233 595 181 534 181 476 c 0
 181 424 210 371 253 323 c 0
 297 274 354 229 412 176 c 1
 470 229 528 274 571 323 c 0
 614 371 643 424 643 476 c 0
 643 534 591 595 528 595 c 0
 470 595 441 569 412 516 c 1
EndSplineSet
Validated: 1
EndChar

StartChar: N
Encoding: 78 78 46
Width: 1024
VWidth: 0
Flags: W
HStem: -6 222<177 647> 358 107<160.682 263.228 561.478 663.318> 608 222<177 647>
VStem: -6 147<277.058 546.942> 683 147<277.058 546.942>
LayerCount: 2
Fore
SplineSet
412 830 m 0
 643 830 830 643 830 412 c 0
 830 181 643 -6 412 -6 c 0
 181 -6 -6 181 -6 412 c 0
 -6 643 181 830 412 830 c 0
268 331 m 1
 255 348 235 358 212 358 c 0
 173 358 141 327 141 287 c 0
 141 248 173 216 212 216 c 0
 240 216 265 233 276 256 c 1
 344 279 398 343 444 393 c 0
 483 434 522 475 557 492 c 1
 570 476 589 465 612 465 c 0
 651 465 683 497 683 537 c 0
 683 576 651 608 612 608 c 0
 583 608 558 590 547 566 c 1
 490 547 439 492 387 438 c 0
 353 401 314 354 268 331 c 1
612 358 m 0
 589 358 569 348 556 331 c 1
 532 343 506 366 480 393 c 1
 463 375 447 358 430 340 c 1
 468 302 506 270 548 256 c 1
 559 233 584 216 612 216 c 0
 651 216 683 248 683 287 c 0
 683 327 651 358 612 358 c 0
212 608 m 0
 173 608 141 576 141 537 c 0
 141 497 173 465 212 465 c 0
 235 465 254 476 268 492 c 1
 292 480 318 457 344 430 c 1
 361 447 377 465 394 482 c 1
 357 520 318 552 277 566 c 1
 266 590 241 608 212 608 c 0
EndSplineSet
Validated: 1
EndChar

StartChar: O
Encoding: 79 79 47
Width: 1024
VWidth: 0
Flags: W
HStem: -7 836<277.879 546.121>
VStem: -6 836<276.879 545.121>
LayerCount: 2
Fore
SplineSet
412 829 m 0
 643 829 830 642 830 411 c 0
 830 180 643 -7 412 -7 c 0
 181 -7 -6 180 -6 411 c 0
 -6 642 181 829 412 829 c 0
EndSplineSet
Validated: 1
EndChar

StartChar: P
Encoding: 80 80 48
Width: 1024
VWidth: 0
Flags: W
HStem: 617 212<277.879 546.121>
VStem: -6 196<326.717 545.121> 635 195<326.717 545.121>
LayerCount: 2
Fore
SplineSet
412 -7 m 0
 181 -7 -6 180 -6 411 c 0
 -6 642 181 829 412 829 c 0
 643 829 830 642 830 411 c 0
 830 180 643 -7 412 -7 c 0
310 617 m 2
 244 617 190 562 190 496 c 2
 190 394 l 2
 190 328 244 273 310 273 c 1
 312 269 312 263 312 254 c 0
 312 225 303 175 280 156 c 1
 281 156 282 156 283 156 c 0
 352 156 432 219 444 273 c 1
 514 273 l 2
 580 273 635 328 635 394 c 2
 635 496 l 2
 635 562 580 617 514 617 c 2
 310 617 l 2
EndSplineSet
Validated: 1
EndChar

StartChar: Q
Encoding: 81 81 49
Width: 1024
VWidth: 0
Flags: W
HStem: -8 169<307.379 508.769> 267 187<333.753 399> 647 182<307.487 506.445>
VStem: -6 553<336.936 452.614> 652 178<304.821 506.269>
LayerCount: 2
Fore
SplineSet
412 -8 m 0
 181 -8 -6 180 -6 411 c 0
 -6 642 181 829 412 829 c 0
 643 829 830 642 830 411 c 0
 830 180 643 -8 412 -8 c 0
399 454 m 1
 349 528 l 1
 368 538 388 542 409 542 c 0
 410 542 l 0
 431 542 452 537 471 528 c 0
 505 510 529 481 540 448 c 0
 544 434 547 419 547 404 c 0
 547 383 542 362 532 342 c 0
 516 311 489 286 452 274 c 0
 438 269 423 267 409 267 c 0
 396 267 384 268 372 271 c 0
 347 279 323 293 305 314 c 1
 225 245 l 1
 257 208 299 182 345 170 c 0
 366 164 387 161 409 161 c 0
 435 161 461 165 485 173 c 0
 549 194 598 239 626 295 c 0
 644 330 652 366 652 402 c 0
 652 428 648 454 640 481 c 1
 619 545 574 594 518 622 c 0
 484 639 446 647 409 647 c 0
 407 647 405 647 403 647 c 0
 364 646 325 636 290 617 c 1
 244 685 l 1
 166 465 l 1
 399 454 l 1
EndSplineSet
Validated: 1
EndChar

StartChar: R
Encoding: 82 82 50
Width: 1024
VWidth: 0
Flags: W
HStem: -8 169<315.231 516.807> 267 187<425 490.247> 647 182<317.555 516.513>
VStem: -6 178<304.821 506.269> 277 553<336.936 452.614>
LayerCount: 2
Fore
SplineSet
412 -8 m 0
 181 -8 -6 180 -6 411 c 0
 -6 642 181 829 412 829 c 0
 643 829 830 642 830 411 c 0
 830 180 643 -8 412 -8 c 0
425 454 m 1
 659 465 l 1
 580 685 l 1
 534 617 l 1
 500 636 460 646 421 647 c 0
 419 647 417 647 415 647 c 0
 378 647 340 639 306 622 c 0
 250 594 205 545 184 481 c 1
 176 454 172 428 172 402 c 0
 172 366 180 330 198 295 c 0
 226 239 275 194 339 173 c 0
 363 165 389 161 415 161 c 0
 437 161 458 164 480 170 c 0
 525 182 567 208 599 245 c 1
 519 314 l 1
 501 293 477 279 452 271 c 0
 440 268 428 267 416 267 c 0
 401 267 386 269 372 274 c 0
 335 286 308 311 292 342 c 0
 282 362 277 383 277 404 c 0
 277 419 280 434 284 448 c 0
 295 481 319 510 353 528 c 0
 372 537 393 542 414 542 c 0
 415 542 l 0
 436 542 456 538 475 528 c 1
 425 454 l 1
EndSplineSet
Validated: 1
EndChar

StartChar: S
Encoding: 83 83 51
Width: 1024
VWidth: 0
Flags: W
HStem: -7 175<317.555 506.445> 350 59<169 274> 423 38<550 573.831> 427 45<550 655> 624 21G<513.5 544.529> 654 175<317.555 516.005>
VStem: -6 175<409 505.445> 655 175<307.907 427>
LayerCount: 2
Fore
SplineSet
412 -7 m 0xcf
 181 -7 -6 180 -6 411 c 0
 -6 642 181 829 412 829 c 0
 643 829 830 642 830 411 c 0
 830 180 643 -7 412 -7 c 0xcf
422 461 m 1xef
 655 472 l 1xdf
 577 692 l 1
 531 624 l 1
 496 643 457 653 417 654 c 0
 416 654 414 654 412 654 c 0
 374 654 337 646 303 629 c 0
 247 601 202 552 181 488 c 1
 173 461 169 435 169 409 c 1
 274 413 l 1
 274 427 276 441 281 455 c 0
 292 488 316 518 350 535 c 0
 369 544 390 549 411 549 c 0
 412 549 l 0
 432 549 453 545 472 535 c 1
 422 461 l 1xef
402 361 m 1
 169 350 l 1
 247 130 l 1
 293 199 l 1
 328 179 367 169 407 168 c 0
 408 168 410 168 412 168 c 0
 450 168 488 176 521 193 c 0
 577 221 622 270 644 334 c 1
 651 361 655 387 655 413 c 0
 655 418 655 422 655 427 c 1xdf
 550 423 l 1xef
 550 419 550 415 550 411 c 0
 550 396 548 381 543 367 c 0
 532 334 508 305 474 288 c 0
 455 278 434 273 413 273 c 0
 413 273 413 273 412 273 c 0
 392 273 371 277 352 287 c 1
 402 361 l 1
EndSplineSet
Validated: 1
EndChar

StartChar: T
Encoding: 84 84 52
Width: 1024
VWidth: 0
Flags: W
HStem: -8 138<305.173 518.827> 691 138<305.173 518.827>
VStem: -6 138<304.062 517.616> 382 61<413 605> 692 138<304.062 517.616>
LayerCount: 2
Fore
SplineSet
412 -8 m 0
 181 -8 -6 180 -6 411 c 0
 -6 642 181 829 412 829 c 0
 643 829 830 642 830 411 c 0
 830 180 643 -8 412 -8 c 0
412 691 m 0
 257 691 132 565 132 411 c 0
 132 256 257 130 412 130 c 0
 567 130 692 256 692 411 c 0
 692 565 567 691 412 691 c 0
382 605 m 1
 443 605 l 1
 443 413 l 1
 522 333 l 1
 478 290 l 1
 382 383 l 1
 382 605 l 1
EndSplineSet
Validated: 1
EndChar

StartChar: U
Encoding: 85 85 53
Width: 1024
VWidth: 0
Flags: W
HStem: -7 182<277.879 546.121> 424 47<342.487 459.984> 710 119<345.373 457.332>
VStem: 503 327<295.5 649.5>
LayerCount: 2
Fore
SplineSet
412 -7 m 0
 181 -7 -6 180 -6 411 c 0
 -6 642 181 829 412 829 c 0
 643 829 830 642 830 411 c 0
 830 180 643 -7 412 -7 c 0
616 187 m 1
 616 298 612 369 574 424 c 0
 560 445 520 458 503 466 c 1
 476 440 441 424 401 424 c 0
 365 424 332 437 307 458 c 1
 294 451 260 440 250 424 c 0
 212 369 209 298 209 187 c 1
 223 175 l 1
 602 175 l 1
 616 187 l 1
401 710 m 0
 345 710 300 657 300 590 c 0
 300 524 345 471 401 471 c 0
 457 471 503 524 503 590 c 0
 503 657 457 710 401 710 c 0
EndSplineSet
Validated: 1
EndChar

StartChar: V
Encoding: 86 86 54
Width: 1024
VWidth: 0
Flags: W
HStem: 642 187<327.717 496.283>
VStem: -6 836<180 642>
LayerCount: 2
Fore
SplineSet
153 422 m 1
 412 180 l 1
 671 422 l 1
 578 500 l 1
 505 431 l 1
 505 642 l 1
 319 642 l 1
 319 431 l 1
 246 500 l 1
 153 422 l 1
830 411 m 0
 830 180 643 -7 412 -7 c 0
 181 -7 -6 180 -6 411 c 0
 -6 642 181 829 412 829 c 0
 643 829 830 642 830 411 c 0
EndSplineSet
Validated: 1
EndChar

StartChar: W
Encoding: 87 87 55
Width: 1024
VWidth: 0
Flags: W
HStem: 53 43<364.985 456.18> 220 43<388.879 435.342> 574 196<377.024 446.03>
LayerCount: 2
Fore
SplineSet
411 220 m 0
 394 220 378 213 367 202 c 0
 356 191 349 175 349 158 c 0
 349 141 356 126 367 115 c 0
 378 103 394 96 411 96 c 0
 428 96 443 103 454 115 c 0
 466 126 472 141 472 158 c 0
 472 175 466 191 454 202 c 0
 443 213 428 220 411 220 c 0
477 462 m 1
 477 499 469 527 457 546 c 0
 444 565 428 574 412 574 c 0
 396 574 380 565 368 546 c 0
 355 527 347 499 347 462 c 1
 355 396 366 346 377 313 c 0
 388 279 400 263 412 263 c 0
 424 263 436 279 447 313 c 0
 458 346 468 396 477 462 c 1
446 748 m 2
 814 112 l 2
 818 105 820 97 820 90 c 0
 820 70 804 53 779 53 c 2
 45 53 l 2
 20 53 4 69 4 89 c 0
 4 96 6 104 10 112 c 2
 377 748 l 2
 385 763 398 770 412 770 c 0
 424 770 437 763 446 748 c 2
EndSplineSet
Validated: 1
EndChar

StartChar: X
Encoding: 88 88 56
Width: 1024
VWidth: 0
Flags: W
HStem: -7 836<181 643>
VStem: -6 836<180 642>
LayerCount: 2
Fore
SplineSet
201 534 m 1
 325 411 l 1
 201 288 l 1
 289 200 l 1
 412 324 l 1
 535 200 l 1
 623 288 l 1
 500 411 l 1
 623 534 l 1
 535 622 l 1
 412 498 l 1
 289 622 l 1
 201 534 l 1
412 829 m 0
 643 829 830 642 830 411 c 0
 830 180 643 -7 412 -7 c 0
 181 -7 -6 180 -6 411 c 0
 -6 642 181 829 412 829 c 0
EndSplineSet
Validated: 1
EndChar

StartChar: Y
Encoding: 89 89 57
Width: 1024
VWidth: 0
Flags: W
HStem: -8 259<351.548 529.867> 428 78<291 586> 683 146<346.342 529.554>
VStem: -6 229<375.877 545.83> 655 175<376.002 544.752>
LayerCount: 2
Fore
SplineSet
586 506 m 1
 586 428 l 1
 291 428 l 1
 291 506 l 1
 586 506 l 1
569 639 m 0
 530 668 484 683 439 683 c 0
 374 683 309 653 267 597 c 0
 238 558 223 512 223 467 c 0
 223 422 238 377 265 340 c 1
 169 214 l 1
 269 139 l 1
 364 265 l 1
 388 256 414 251 439 251 c 0
 504 251 568 281 611 337 c 0
 640 376 655 421 655 467 c 0
 655 532 625 596 569 639 c 0
412 -8 m 0
 181 -8 -6 180 -6 411 c 0
 -6 642 181 829 412 829 c 0
 643 829 830 642 830 411 c 0
 830 180 643 -8 412 -8 c 0
EndSplineSet
Validated: 1
EndChar

StartChar: Z
Encoding: 90 90 58
Width: 1024
VWidth: 0
Flags: W
HStem: -8 259<351.548 529.867> 428 78<291 400 478 586> 683 146<346.342 529.554>
VStem: -6 229<375.877 545.83> 400 78<319 428 506 614> 655 175<376.002 544.752>
LayerCount: 2
Fore
SplineSet
400 614 m 1
 478 614 l 1
 478 506 l 1
 586 506 l 1
 586 428 l 1
 478 428 l 1
 478 319 l 1
 400 319 l 1
 400 428 l 1
 291 428 l 1
 291 506 l 1
 400 506 l 1
 400 614 l 1
569 639 m 0
 530 668 484 683 439 683 c 0
 374 683 309 653 267 597 c 0
 238 558 223 512 223 467 c 0
 223 422 238 377 265 340 c 1
 169 214 l 1
 269 139 l 1
 364 265 l 1
 388 256 414 251 439 251 c 0
 504 251 568 281 611 337 c 0
 640 376 655 421 655 467 c 0
 655 532 625 596 569 639 c 0
412 -8 m 0
 181 -8 -6 180 -6 411 c 0
 -6 642 181 829 412 829 c 0
 643 829 830 642 830 411 c 0
 830 180 643 -8 412 -8 c 0
EndSplineSet
Validated: 1
EndChar

StartChar: bracketleft
Encoding: 91 91 59
Width: 1024
VWidth: 0
Flags: W
LayerCount: 2
Fore
SplineSet
379 390 m 1
 379 237 l 1
 160 411 l 1
 379 585 l 1
 379 432 l 1
 573 585 l 1
 573 237 l 1
 379 390 l 1
EndSplineSet
Validated: 1
EndChar

StartChar: backslash
Encoding: 92 92 60
Width: 1024
VWidth: 0
Flags: W
HStem: 150 104<334.082 489.918> 636 20G<271.5 321 503 552.5>
VStem: 151 104<333.082 490.968> 361 102<461 728> 569 104<333.082 490.968>
CounterMasks: 1 38
LayerCount: 2
Fore
SplineSet
503 656 m 1
 602 619 673 523 673 411 c 0
 673 267 556 150 412 150 c 0
 268 150 151 267 151 411 c 0
 151 523 222 619 321 656 c 1
 321 540 l 1
 281 511 255 464 255 411 c 0
 255 324 325 254 412 254 c 0
 499 254 569 324 569 411 c 0
 569 464 543 511 503 540 c 1
 503 656 l 1
361 461 m 1
 361 728 l 1
 463 728 l 1
 463 461 l 1
 361 461 l 1
EndSplineSet
Validated: 1
EndChar

StartChar: bracketright
Encoding: 93 93 61
Width: 1024
VWidth: 0
Flags: W
LayerCount: 2
Fore
SplineSet
445 390 m 1
 252 237 l 1
 252 585 l 1
 445 432 l 1
 445 585 l 1
 664 411 l 1
 445 237 l 1
 445 390 l 1
EndSplineSet
Validated: 1
EndChar

StartChar: asciicircum
Encoding: 94 94 62
Width: 1024
VWidth: 0
Flags: W
HStem: -7 836<181 643>
LayerCount: 2
Fore
SplineSet
-6 411 m 0
 -6 642 181 829 412 829 c 0
 643 829 830 642 830 411 c 0
 830 180 643 -7 412 -7 c 0
 181 -7 -6 180 -6 411 c 0
671 359 m 1
 412 601 l 1
 153 359 l 1
 246 281 l 1
 412 438 l 1
 578 281 l 1
 671 359 l 1
EndSplineSet
Validated: 1
EndChar

StartChar: underscore
Encoding: 95 95 63
Width: 1024
VWidth: 0
Flags: W
HStem: -7 836<181 643>
LayerCount: 2
Fore
SplineSet
830 411 m 0
 830 180 643 -7 412 -7 c 0
 181 -7 -6 180 -6 411 c 0
 -6 642 181 829 412 829 c 0
 643 829 830 642 830 411 c 0
153 463 m 1
 412 221 l 1
 671 463 l 1
 578 541 l 1
 412 383 l 1
 246 541 l 1
 153 463 l 1
EndSplineSet
Validated: 1
EndChar

StartChar: grave
Encoding: 96 96 64
Width: 1024
VWidth: 0
Flags: W
HStem: 206 49<209 615> 567 49<209 615>
VStem: 125 49<290 532> 650 49<290 532>
LayerCount: 2
Fore
SplineSet
699 616 m 1
 699 206 l 1
 125 206 l 1
 125 616 l 1
 699 616 l 1
615 567 m 1
 209 567 l 1
 412 364 l 1
 615 567 l 1
650 290 m 1
 650 532 l 1
 528 411 l 1
 650 290 l 1
209 255 m 1
 615 255 l 1
 494 376 l 1
 412 295 l 1
 330 376 l 1
 209 255 l 1
174 532 m 1
 174 290 l 1
 296 411 l 1
 174 532 l 1
EndSplineSet
Validated: 1
EndChar

StartChar: a
Encoding: 97 97 65
Width: 1024
VWidth: 0
Flags: W
HStem: 175 117<507 601> 444 78<437 548 627 737> 563 147<397.62 481.74> 613 20G<548 627>
VStem: 548 79<333 444 522 633>
LayerCount: 2
Fore
SplineSet
548 633 m 1xd8
 627 633 l 1
 627 522 l 1
 737 522 l 1
 737 444 l 1
 627 444 l 1
 627 333 l 1
 548 333 l 1
 548 444 l 1
 437 444 l 1
 437 522 l 1
 548 522 l 1
 548 633 l 1xd8
423 710 m 0xe8
 458 710 489 689 507 658 c 1
 507 563 l 1
 396 563 l 1
 396 475 l 1
 353 489 321 535 321 590 c 0
 321 657 367 710 423 710 c 0xe8
209 187 m 1
 209 298 212 369 250 424 c 0
 264 445 303 458 320 466 c 1
 341 446 367 432 396 427 c 1
 396 403 l 1
 507 403 l 1
 507 292 l 1
 613 292 l 1
 615 261 616 227 616 187 c 1
 601 175 l 1
 222 175 l 1
 209 187 l 1
EndSplineSet
Validated: 1
EndChar

StartChar: b
Encoding: 98 98 66
Width: 1024
VWidth: 0
Flags: W
HStem: 137 124<365.2 458.8> 274 405<329.859 494.141>
VStem: 350 124<152.2 245.8>
LayerCount: 2
Fore
SplineSet
412 261 m 0
 446 261 474 233 474 199 c 0
 474 165 446 137 412 137 c 0
 378 137 350 165 350 199 c 0
 350 233 378 261 412 261 c 0
665 315 m 1
 665 301 665 287 665 274 c 1
 159 274 l 1
 159 287 159 301 159 315 c 1
 192 350 229 374 239 420 c 2
 275 587 l 2
 288 645 350 679 412 679 c 0
 474 679 536 645 549 587 c 2
 585 420 l 2
 595 374 632 350 665 315 c 1
EndSplineSet
Validated: 1
EndChar

StartChar: c
Encoding: 99 99 67
Width: 1024
VWidth: 0
Flags: W
LayerCount: 2
Fore
SplineSet
194 321 m 1
 268 429 l 1
 350 364 l 1
 489 598 l 1
 640 598 l 1
 386 178 l 1
 194 321 l 1
EndSplineSet
Validated: 1
EndChar

StartChar: d
Encoding: 100 100 68
Width: 1024
VWidth: 0
Flags: W
HStem: 156 57<228.609 389.103 464 609> 257 77<272.438 339.574> 381 69<272.028 335.621> 494 164<312.574 398.483 499.186 509> 499 32<239.72 298.333 522.667 567.691> 552 176<232.98 291.082 529.918 588.02>
VStem: 169 103<334 381> 169 70<434 492.935> 169 59<215.792 277> 169 44<539.385 658> 232 60<553.106 726.894> 312 197<539.385 658> 419 45<234.908 263 431 473.617> 529 60<553.106 726.894> 568 87<263 494> 609 46<213 263 539.385 658>
LayerCount: 2
Fore
SplineSet
169 658 m 1xf051
 213 658 l 1xf051
 213 580 l 2
 213 553 235 531 262 531 c 0xe851
 290 531 312 553 312 580 c 2
 312 658 l 1
 509 658 l 1xf051
 509 580 l 2
 509 553 531 531 559 531 c 0xe851
 586 531 609 553 609 580 c 2
 609 658 l 1
 655 658 l 1
 655 156 l 1
 169 156 l 1
 169 658 l 1xf051
262 728 m 0xe420
 279 728 292 715 292 698 c 2
 292 582 l 2
 292 565 279 552 262 552 c 0
 246 552 232 565 232 582 c 2
 232 698 l 2
 232 715 246 728 262 728 c 0xe420
559 728 m 0
 575 728 589 715 589 698 c 2
 589 582 l 2
 589 565 575 552 559 552 c 0
 542 552 529 565 529 582 c 2
 529 698 l 2xe404
 529 715 542 728 559 728 c 0
367 364 m 1
 382 369 393 376 401 387 c 0
 409 397 413 411 413 427 c 0
 413 451 405 469 388 481 c 0
 372 493 347 499 315 499 c 0
 302 499 290 498 277 496 c 0
 265 494 252 491 239 487 c 1
 239 434 l 1xe908
 250 439 260 443 271 446 c 0
 282 448 292 450 303 450 c 0
 317 450 328 447 336 441 c 0
 344 435 348 426 348 416 c 0
 348 404 344 395 336 390 c 0
 328 384 315 381 299 381 c 2
 272 381 l 1
 272 334 l 1xea
 298 334 l 2
 316 334 330 331 339 324 c 0
 349 318 354 308 354 295 c 0
 354 283 349 273 340 267 c 0
 331 260 317 257 300 257 c 0
 288 257 276 258 264 262 c 0
 252 265 240 270 228 277 c 1
 228 221 l 1
 241 217 254 215 267 213 c 0
 280 211 293 207 306 207 c 0
 343 207 371 215 390 229 c 0
 409 244 419 265 419 293 c 0xe888
 419 311 414 327 405 339 c 0
 397 351 384 360 367 364 c 1
464 263 m 1
 464 213 l 1
 609 213 l 1
 609 263 l 1xf009
 568 263 l 1
 568 494 l 1
 506 494 l 1xf002
 462 480 l 1
 462 431 l 1
 506 445 l 1
 506 263 l 1
 464 263 l 1
EndSplineSet
Validated: 1
EndChar

StartChar: e
Encoding: 101 101 69
Width: 1024
VWidth: 0
Flags: W
HStem: 150 206<378.203 445.797> 376 69<151 239.124 584.876 673> 466 206<378.203 445.797>
VStem: 151 206<376.171 444.797> 378 68<150 237.069 584.698 672> 467 206<377.203 444.797>
CounterMasks: 1 1c
LayerCount: 2
Fore
SplineSet
151 445 m 1
 216 445 250 462 250 493 c 0
 250 513 235 540 203 571 c 1
 252 620 l 1
 283 588 310 573 330 573 c 0
 360 573 378 606 378 672 c 1
 446 672 l 1
 446 606 464 573 494 573 c 0
 514 573 541 588 572 620 c 1
 621 571 l 1
 590 540 574 513 574 493 c 0
 574 462 608 445 673 445 c 1
 673 377 l 1
 608 377 574 359 574 329 c 0
 574 309 590 282 621 251 c 1
 572 202 l 1
 541 233 514 249 494 249 c 0
 464 249 446 215 446 150 c 1
 378 150 l 1
 378 215 360 249 330 249 c 0
 310 249 283 233 252 202 c 1
 203 251 l 1
 235 282 250 309 250 329 c 0
 250 359 216 376 151 376 c 1
 151 445 l 1
412 466 m 0
 382 466 357 441 357 411 c 0
 357 381 382 356 412 356 c 0
 442 356 467 381 467 411 c 0
 467 441 442 466 412 466 c 0
EndSplineSet
Validated: 1
EndChar

StartChar: f
Encoding: 102 102 70
Width: 1024
VWidth: 0
Flags: W
HStem: 251 67<307.317 461.127> 616 67<307.748 462.943>
VStem: 169 67<389.594 544.683> 534 67<389.645 544.917>
LayerCount: 2
Fore
SplineSet
255 639 m 0
 294 668 340 683 385 683 c 0
 450 683 515 653 557 597 c 0
 586 558 601 512 601 467 c 0
 601 422 587 377 559 340 c 1
 655 214 l 1
 555 139 l 1
 460 265 l 1
 436 256 410 251 385 251 c 0
 320 251 256 281 213 337 c 0
 184 376 169 421 169 467 c 0
 169 532 199 596 255 639 c 0
295 585 m 0
 257 556 236 512 236 467 c 0
 236 436 246 404 267 377 c 0
 296 339 340 318 385 318 c 0
 417 318 448 328 475 348 c 0
 513 378 534 422 534 467 c 0
 534 498 524 530 504 557 c 0
 474 595 430 616 385 616 c 0
 354 616 322 606 295 585 c 0
EndSplineSet
Validated: 1
EndChar

StartChar: g
Encoding: 103 103 71
Width: 1024
VWidth: 0
Flags: W
HStem: 211 105<217 321 360 464 503 607> 358 105<217 321 360 464 503 607> 506 105<217 321 360 464 503 607>
VStem: 217 104<211 316 358 463 506 611> 360 104<211 316 358 463 506 611> 503 104<211 316 358 463 506 611>
CounterMasks: 1 1c
LayerCount: 2
Fore
SplineSet
217 611 m 1
 321 611 l 1
 321 506 l 1
 217 506 l 1
 217 611 l 1
360 611 m 1
 464 611 l 1
 464 506 l 1
 360 506 l 1
 360 611 l 1
503 611 m 1
 607 611 l 1
 607 506 l 1
 503 506 l 1
 503 611 l 1
217 463 m 1
 321 463 l 1
 321 358 l 1
 217 358 l 1
 217 463 l 1
360 463 m 1
 464 463 l 1
 464 358 l 1
 360 358 l 1
 360 463 l 1
503 463 m 1
 607 463 l 1
 607 358 l 1
 503 358 l 1
 503 463 l 1
217 316 m 1
 321 316 l 1
 321 211 l 1
 217 211 l 1
 217 316 l 1
360 316 m 1
 464 316 l 1
 464 211 l 1
 360 211 l 1
 360 316 l 1
503 316 m 1
 607 316 l 1
 607 211 l 1
 503 211 l 1
 503 316 l 1
EndSplineSet
Validated: 1
EndChar

StartChar: h
Encoding: 104 104 72
Width: 1024
VWidth: 0
Flags: W
HStem: 670 20G<388.887 435.113> 670 20G<388.887 435.113>
VStem: 214 124<202 389> 486 124<202 389>
LayerCount: 2
Fore
SplineSet
610 391 m 1x30
 610 202 l 1
 486 202 l 1
 486 389 l 1
 338 389 l 1
 338 202 l 1
 214 202 l 1
 214 391 l 1
 412 562 l 1
 610 391 l 1x30
412 690 m 1xb0
 709 433 l 1
 668 396 l 1
 412 616 l 1
 156 396 l 1
 115 433 l 1
 412 690 l 1xb0
EndSplineSet
Validated: 1
EndChar

StartChar: i
Encoding: 105 105 73
Width: 1024
VWidth: 0
Flags: W
HStem: 119 112<263 362 479 561> 358 112<284 362> 539 187<351.115 472.885>
VStem: 284 195<358 470> 319 186<570.326 693.89> 362 117<231 358>
LayerCount: 2
Fore
SplineSet
505 632 m 0xe8
 505 608 496 584 479 566 c 0xe4
 461 549 437 539 412 539 c 0
 387 539 363 549 345 566 c 0
 328 584 319 608 319 632 c 0xe8
 319 657 328 681 345 698 c 0
 363 716 387 726 412 726 c 0
 437 726 461 716 479 698 c 0xe4
 496 681 505 657 505 632 c 0xe8
362 358 m 1
 284 358 l 1
 284 470 l 1
 479 470 l 1xf0
 479 231 l 1
 561 231 l 1
 561 119 l 1
 263 119 l 1
 263 231 l 1
 362 231 l 1
 362 358 l 1
EndSplineSet
Validated: 1
EndChar

StartChar: j
Encoding: 106 106 74
Width: 1024
VWidth: 0
Flags: W
HStem: 219 83<259.801 562.199> 520 82<259.801 336> 653 20G<336 362.786>
VStem: 133 83<345.357 476.643> 606 83<345.357 476.778>
LayerCount: 2
Fore
SplineSet
325 602 m 2
 336 602 l 1
 336 673 l 1
 486 561 l 1
 336 450 l 1
 336 520 l 1
 325 520 l 2
 295 520 268 508 248 488 c 0
 228 468 216 441 216 411 c 0
 216 381 228 354 248 334 c 0
 268 314 295 302 325 302 c 2
 497 302 l 2
 527 302 554 314 574 334 c 0
 594 354 606 381 606 411 c 0
 606 439 595 466 577 485 c 0
 558 505 533 518 505 520 c 1
 547 551 l 1
 505 602 l 1
 556 600 602 578 635 543 c 0
 668 509 689 462 689 411 c 0
 689 359 667 311 632 276 c 0
 597 241 549 219 497 219 c 2
 325 219 l 2
 273 219 225 241 190 276 c 0
 155 311 133 359 133 411 c 0
 133 463 155 511 190 546 c 0
 225 581 273 602 325 602 c 2
EndSplineSet
Validated: 1
EndChar

StartChar: k
Encoding: 107 107 75
Width: 1024
VWidth: 0
Flags: W
HStem: 164 64<312.846 383.154> 396 64<305.515 384.462> 595 89<480.412 554.178>
VStem: 174 134<232.605 342.392> 174 122<310.423 386.146> 385 89<460 587.25> 401 134<310.423 386.146> 561 89<484 587.25>
LayerCount: 2
Fore
SplineSet
385 460 m 1xed
 385 551 l 1
 385 624 445 684 517 684 c 0
 590 684 650 624 650 551 c 2
 650 484 l 1
 561 484 l 1
 561 551 l 2
 561 575 541 595 517 595 c 0
 493 595 474 575 474 551 c 1
 474 460 l 1xed
 505 460 l 2
 521 460 535 447 535 430 c 2
 535 194 l 2xe3
 535 177 521 164 505 164 c 2
 204 164 l 2
 187 164 174 177 174 194 c 2
 174 430 l 2
 174 447 187 460 204 460 c 2
 385 460 l 1xed
348 228 m 1
 370 228 388 247 388 269 c 2
 388 310 l 1
 396 319 401 330 401 343 c 0
 401 372 377 396 348 396 c 0
 319 396 296 372 296 343 c 0xeb
 296 330 300 319 308 310 c 1
 308 269 l 2xf1
 308 247 326 228 348 228 c 1
EndSplineSet
Validated: 1
EndChar

StartChar: l
Encoding: 108 108 76
Width: 1024
VWidth: 0
Flags: W
HStem: 194 65<376.393 447.607> 426 65<369.515 450.59> 602 89<370.822 444.588>
VStem: 214 158<263.393 373.391> 214 146<340.424 416.485> 275 89<491 594.25> 451 89<491 594.25> 464 146<340.424 416.485>
LayerCount: 2
Fore
SplineSet
412 259 m 0xf0
 434 259 452 277 452 299 c 2
 452 340 l 1
 460 349 464 361 464 374 c 0
 464 403 441 426 412 426 c 0
 383 426 360 403 360 374 c 0xe9
 360 361 364 349 372 340 c 1
 372 299 l 2
 372 277 390 259 412 259 c 0xf0
275 491 m 1xe4
 275 558 l 2
 275 631 335 691 408 691 c 0
 480 691 540 631 540 558 c 2
 540 491 l 1xe6
 580 491 l 2
 597 491 610 477 610 461 c 2
 610 224 l 2
 610 208 597 194 580 194 c 2
 244 194 l 2
 227 194 214 208 214 224 c 2
 214 461 l 2xe9
 214 477 227 491 244 491 c 2
 275 491 l 1xe4
451 491 m 1
 451 558 l 2
 451 582 432 602 408 602 c 0
 384 602 364 582 364 558 c 2
 364 491 l 1
 451 491 l 1
EndSplineSet
Validated: 1
EndChar

StartChar: m
Encoding: 109 109 77
Width: 1024
VWidth: 0
Flags: W
VStem: 181 462<393.178 513.823>
LayerCount: 2
Fore
SplineSet
412 516 m 1
 441 569 470 595 528 595 c 0
 591 595 643 534 643 476 c 0
 643 424 614 371 571 323 c 0
 528 274 470 229 412 176 c 1
 354 229 297 274 253 323 c 0
 210 371 181 424 181 476 c 0
 181 534 233 595 297 595 c 0
 354 595 383 569 412 516 c 1
EndSplineSet
Validated: 1
EndChar

StartChar: n
Encoding: 110 110 78
Width: 1024
VWidth: 0
Flags: W
HStem: 216 142<160.682 263.488 560.512 663.318> 465 143<160.682 263.228 561.478 663.318>
LayerCount: 2
Fore
SplineSet
268 331 m 1
 314 354 353 401 387 438 c 0
 439 492 490 547 547 566 c 1
 558 590 583 608 612 608 c 0
 651 608 683 576 683 537 c 0
 683 497 651 465 612 465 c 0
 589 465 570 476 557 492 c 1
 522 475 483 434 444 393 c 0
 398 343 344 279 276 256 c 1
 265 233 240 216 212 216 c 0
 173 216 141 248 141 287 c 0
 141 327 173 358 212 358 c 0
 235 358 255 348 268 331 c 1
612 358 m 0
 651 358 683 327 683 287 c 0
 683 248 651 216 612 216 c 0
 584 216 559 233 548 256 c 1
 506 270 468 302 430 340 c 1
 447 358 463 375 480 393 c 1
 506 366 532 343 556 331 c 1
 569 348 589 358 612 358 c 0
212 608 m 0
 241 608 266 590 277 566 c 1
 318 552 357 520 394 482 c 1
 377 465 361 447 344 430 c 1
 318 457 292 480 268 492 c 1
 254 476 235 465 212 465 c 0
 173 465 141 497 141 537 c 0
 141 576 173 608 212 608 c 0
EndSplineSet
Validated: 1
EndChar

StartChar: o
Encoding: 111 111 79
Width: 1024
VWidth: 0
Flags: W
HStem: 130 561<302.859 521.141>
VStem: 132 560<301.703 519.719>
LayerCount: 2
Fore
SplineSet
412 691 m 0
 567 691 692 565 692 411 c 0
 692 256 567 130 412 130 c 0
 257 130 132 256 132 411 c 0
 132 565 257 691 412 691 c 0
EndSplineSet
Validated: 1
EndChar

StartChar: p
Encoding: 112 112 80
Width: 1024
VWidth: 0
Flags: W
HStem: 156 21G<280 317.5>
LayerCount: 2
Fore
SplineSet
310 617 m 2
 514 617 l 2
 580 617 635 562 635 496 c 2
 635 394 l 2
 635 328 580 273 514 273 c 2
 444 273 l 1
 432 219 352 156 283 156 c 0
 282 156 281 156 280 156 c 1
 303 175 312 225 312 254 c 0
 312 263 312 269 310 273 c 1
 244 273 190 328 190 394 c 2
 190 496 l 2
 190 562 244 617 310 617 c 2
EndSplineSet
Validated: 1
EndChar

StartChar: q
Encoding: 113 113 81
Width: 1024
VWidth: 0
Flags: W
HStem: 161 106<334.024 483.8> 542 105<350.357 484.742> 665 20G<236.909 257.529>
VStem: 547 105<329.519 479.34>
LayerCount: 2
Fore
SplineSet
399 454 m 1
 166 465 l 1
 244 685 l 1
 290 617 l 1
 325 636 364 646 403 647 c 0
 405 647 407 647 409 647 c 0
 446 647 484 639 518 622 c 0
 574 594 619 545 640 481 c 1
 648 454 652 428 652 402 c 0
 652 366 644 330 626 295 c 0
 598 239 549 194 485 173 c 0
 461 165 435 161 409 161 c 0
 387 161 366 164 345 170 c 0
 299 182 257 208 225 245 c 1
 305 314 l 1
 323 293 347 279 372 271 c 0
 384 268 396 267 409 267 c 0
 423 267 438 269 452 274 c 0
 489 286 516 311 532 342 c 0
 542 362 547 383 547 404 c 0
 547 419 544 434 540 448 c 0
 529 481 505 510 471 528 c 0
 452 537 431 542 410 542 c 0
 409 542 l 0
 388 542 368 538 349 528 c 1
 399 454 l 1
EndSplineSet
Validated: 1
EndChar

StartChar: r
Encoding: 114 114 82
Width: 1024
VWidth: 0
Flags: W
HStem: 161 106<340.2 490.368> 542 105<339.258 473.98> 665 20G<566.471 587.182>
VStem: 172 105<329.519 479.34>
LayerCount: 2
Fore
SplineSet
425 454 m 1
 475 528 l 1
 456 538 436 542 415 542 c 0
 414 542 l 0
 393 542 372 537 353 528 c 0
 319 510 295 481 284 448 c 0
 280 434 277 419 277 404 c 0
 277 383 282 362 292 342 c 0
 308 311 335 286 372 274 c 0
 386 269 401 267 416 267 c 0
 428 267 440 268 452 271 c 0
 477 279 501 293 519 314 c 1
 599 245 l 1
 567 208 525 182 480 170 c 0
 458 164 437 161 415 161 c 0
 389 161 363 165 339 173 c 0
 275 194 226 239 198 295 c 0
 180 330 172 366 172 402 c 0
 172 428 176 454 184 481 c 1
 205 545 250 594 306 622 c 0
 340 639 378 647 415 647 c 0
 417 647 419 647 421 647 c 0
 460 646 500 636 534 617 c 1
 580 685 l 1
 659 465 l 1
 425 454 l 1
EndSplineSet
Validated: 1
EndChar

StartChar: s
Encoding: 115 115 83
Width: 1024
VWidth: 0
Flags: W
HStem: 168 105<353.52 486.275> 549 105<336.258 470.48> 672 20G<563.471 584.091> 672 20G<563.471 584.091>
VStem: 169 105<413 486.162> 550 105<336.09 423>
LayerCount: 2
Fore
SplineSet
422 461 m 1xec
 472 535 l 1
 453 545 432 549 412 549 c 0
 411 549 l 0
 390 549 369 544 350 535 c 0
 316 518 292 488 281 455 c 0
 276 441 274 427 274 413 c 1
 169 409 l 1
 169 435 173 461 181 488 c 1
 202 552 247 601 303 629 c 0
 337 646 374 654 412 654 c 0
 414 654 416 654 417 654 c 0
 457 653 496 643 531 624 c 1
 577 692 l 1
 655 472 l 1
 422 461 l 1xec
402 361 m 1
 352 287 l 1
 371 277 392 273 412 273 c 0
 413 273 413 273 413 273 c 0
 434 273 455 278 474 288 c 0
 508 305 532 334 543 367 c 0
 548 381 550 396 550 411 c 0
 550 415 550 419 550 423 c 1
 655 427 l 1
 655 422 655 418 655 413 c 0
 655 387 651 361 644 334 c 1
 622 270 577 221 521 193 c 0
 488 176 450 168 412 168 c 0
 410 168 408 168 407 168 c 0
 367 169 328 179 293 199 c 1
 247 130 l 1
 169 350 l 1
 402 361 l 1
EndSplineSet
Validated: 1
EndChar

StartChar: t
Encoding: 116 116 84
Width: 1024
VWidth: 0
Flags: W
HStem: 605 86<383.312 440.688>
VStem: 132 250<383 519.719> 443 249<413 519.719>
LayerCount: 2
Fore
SplineSet
412 691 m 0
 567 691 692 565 692 411 c 0
 692 256 567 130 412 130 c 0
 257 130 132 256 132 411 c 0
 132 565 257 691 412 691 c 0
382 605 m 1
 382 383 l 1
 478 290 l 1
 522 333 l 1
 443 413 l 1
 443 605 l 1
 382 605 l 1
EndSplineSet
Validated: 1
EndChar

StartChar: u
Encoding: 117 117 85
Width: 1024
VWidth: 0
Flags: W
HStem: 175 249<323.183 476.916> 471 239<342.437 459.902>
VStem: 300 203<516.413 664.393>
LayerCount: 2
Fore
SplineSet
616 187 m 1
 602 175 l 1
 223 175 l 1
 209 187 l 1
 209 298 212 369 250 424 c 0
 260 440 294 451 307 458 c 1
 332 437 365 424 401 424 c 0
 441 424 476 440 503 466 c 1
 520 458 560 445 574 424 c 0
 612 369 616 298 616 187 c 1
401 710 m 0
 457 710 503 657 503 590 c 0
 503 524 457 471 401 471 c 0
 345 471 300 524 300 590 c 0
 300 657 345 710 401 710 c 0
EndSplineSet
Validated: 1
EndChar

StartChar: v
Encoding: 118 118 86
Width: 1024
VWidth: 0
Flags: W
HStem: 622 20G<319 505>
VStem: 319 186<431 642>
LayerCount: 2
Fore
SplineSet
153 422 m 1
 246 500 l 1
 319 431 l 1
 319 642 l 1
 505 642 l 1
 505 431 l 1
 578 500 l 1
 671 422 l 1
 412 180 l 1
 153 422 l 1
EndSplineSet
Validated: 1
EndChar

StartChar: w
Encoding: 119 119 87
Width: 1024
VWidth: 0
Flags: W
HStem: 166 124<367.519 457.217> 624 20G<404 420>
VStem: 349 123<180.738 271.481 401.517 615.103>
LayerCount: 2
Fore
SplineSet
411 290 m 4
 428 290 443 283 454 272 c 4
 466 261 472 245 472 228 c 4
 472 211 466 196 454 185 c 4
 443 173 428 166 411 166 c 4
 394 166 378 173 367 185 c 4
 356 196 349 211 349 228 c 4
 349 245 356 261 367 272 c 4
 378 283 394 290 411 290 c 4
477 532 m 5
 468 466 458 416 447 383 c 4
 436 349 424 333 412 333 c 4
 400 333 388 349 377 383 c 4
 366 416 355 466 347 532 c 5
 347 569 355 597 368 616 c 4
 380 635 396 644 412 644 c 4
 428 644 444 635 457 616 c 4
 469 597 477 569 477 532 c 5
EndSplineSet
Validated: 1
EndChar

StartChar: x
Encoding: 120 120 88
Width: 1024
VWidth: 0
Flags: W
HStem: 602 20G<269 308.839 515.161 555>
LayerCount: 2
Fore
SplineSet
201 534 m 1
 289 622 l 1
 412 498 l 1
 535 622 l 1
 623 534 l 1
 500 411 l 1
 623 288 l 1
 535 200 l 1
 412 324 l 1
 289 200 l 1
 201 288 l 1
 325 411 l 1
 201 534 l 1
EndSplineSet
Validated: 1
EndChar

StartChar: y
Encoding: 121 121 89
Width: 1024
VWidth: 0
Flags: W
HStem: 251 177<365.126 533.25> 506 177<344.375 532.624>
VStem: 223 68<429.209 505.028> 586 69<428.536 503.325>
LayerCount: 2
Fore
SplineSet
586 506 m 1
 291 506 l 1
 291 428 l 1
 586 428 l 1
 586 506 l 1
569 639 m 0
 625 596 655 532 655 467 c 0
 655 421 640 376 611 337 c 0
 568 281 504 251 439 251 c 0
 414 251 388 256 364 265 c 1
 269 139 l 1
 169 214 l 1
 265 340 l 1
 238 377 223 422 223 467 c 0
 223 512 238 558 267 597 c 0
 309 653 374 683 439 683 c 0
 484 683 530 668 569 639 c 0
EndSplineSet
Validated: 1
EndChar

StartChar: z
Encoding: 122 122 90
Width: 1024
VWidth: 0
Flags: W
HStem: 251 68<401.125 475.325> 614 69<402.589 477.028>
VStem: 223 68<429.209 505.028> 586 69<428.536 503.325>
LayerCount: 2
Fore
SplineSet
400 614 m 1
 400 506 l 1
 291 506 l 1
 291 428 l 1
 400 428 l 1
 400 319 l 1
 478 319 l 1
 478 428 l 1
 586 428 l 1
 586 506 l 1
 478 506 l 1
 478 614 l 1
 400 614 l 1
569 639 m 0
 625 596 655 532 655 467 c 0
 655 421 640 376 611 337 c 0
 568 281 504 251 439 251 c 0
 414 251 388 256 364 265 c 1
 269 139 l 1
 169 214 l 1
 265 340 l 1
 238 377 223 422 223 467 c 0
 223 512 238 558 267 597 c 0
 309 653 374 683 439 683 c 0
 484 683 530 668 569 639 c 0
EndSplineSet
Validated: 1
EndChar

StartChar: braceleft
Encoding: 123 123 91
Width: 1024
VWidth: 0
Flags: W
VStem: -6 195<276.879 545.121> 635 195<276.879 545.121>
LayerCount: 2
Fore
SplineSet
442 390 m 1
 635 237 l 1
 635 584 l 1
 442 432 l 1
 442 584 l 1
 245 429 l 1
 245 586 l 1
 189 586 l 1
 189 236 l 1
 245 236 l 1
 245 393 l 1
 442 237 l 1
 442 390 l 1
412 829 m 0
 643 829 830 642 830 411 c 0
 830 180 643 -7 412 -7 c 0
 181 -7 -6 180 -6 411 c 0
 -6 642 181 829 412 829 c 0
EndSplineSet
Validated: 1
EndChar

StartChar: bar
Encoding: 124 124 92
Width: 1024
VWidth: 0
Flags: W
HStem: -7 157<308.978 515.022> 254 207<361.533 462.467> 728 101<369.238 454.762>
VStem: -6 157<307.978 515.038> 321 40<523.513 656> 463 40<523.513 656> 673 157<307.978 515.038>
LayerCount: 2
Fore
SplineSet
412 -7 m 0
 181 -7 -6 180 -6 411 c 0
 -6 642 181 829 412 829 c 0
 643 829 830 642 830 411 c 0
 830 180 643 -7 412 -7 c 0
503 656 m 1
 503 540 l 1
 543 511 569 464 569 411 c 0
 569 324 499 254 412 254 c 0
 325 254 255 324 255 411 c 0
 255 464 281 511 321 540 c 1
 321 656 l 1
 222 619 151 523 151 411 c 0
 151 267 268 150 412 150 c 0
 556 150 673 267 673 411 c 0
 673 523 602 619 503 656 c 1
361 461 m 1
 463 461 l 1
 463 728 l 1
 361 728 l 1
 361 461 l 1
EndSplineSet
Validated: 1
EndChar

StartChar: braceright
Encoding: 125 125 93
Width: 1024
VWidth: 0
Flags: W
VStem: -6 195<276.879 545.121> 635 195<276.879 545.121>
LayerCount: 2
Fore
SplineSet
382 390 m 1
 382 237 l 1
 579 393 l 1
 579 236 l 1
 635 236 l 1
 635 586 l 1
 579 586 l 1
 579 429 l 1
 382 584 l 1
 382 432 l 1
 189 584 l 1
 189 237 l 1
 382 390 l 1
412 829 m 0
 643 829 830 642 830 411 c 0
 830 180 643 -7 412 -7 c 0
 181 -7 -6 180 -6 411 c 0
 -6 642 181 829 412 829 c 0
EndSplineSet
Validated: 1
EndChar

StartChar: guillemotleft
Encoding: 171 171 94
Width: 1024
VWidth: 0
Flags: W
HStem: -7 836<181 643>
VStem: 573 257<276.879 545.121>
LayerCount: 2
Fore
SplineSet
379 390 m 1
 573 237 l 1
 573 585 l 1
 379 432 l 1
 379 585 l 1
 160 411 l 1
 379 237 l 1
 379 390 l 1
412 829 m 0
 643 829 830 642 830 411 c 0
 830 180 643 -7 412 -7 c 0
 181 -7 -6 180 -6 411 c 0
 -6 642 181 829 412 829 c 0
EndSplineSet
Validated: 1
EndChar

StartChar: degree
Encoding: 176 176 95
Width: 1024
VWidth: 0
Flags: W
HStem: 629 20G<402.853 423>
VStem: 175 248<308 513>
LayerCount: 2
Fore
SplineSet
470 474 m 1
 516 520 l 1
 579 456 l 1
 643 520 l 1
 688 474 l 1
 625 411 l 1
 688 347 l 1
 643 302 l 1
 579 365 l 1
 516 302 l 1
 470 347 l 1
 534 411 l 1
 470 474 l 1
175 513 m 1
 286 513 l 1
 423 649 l 1
 423 172 l 1
 286 308 l 1
 175 308 l 1
 175 513 l 1
EndSplineSet
Validated: 1
EndChar

StartChar: plusminus
Encoding: 177 177 96
Width: 1024
VWidth: 0
Flags: W
HStem: 308 205<222 341> 629 20G<466.382 488>
VStem: 222 266<308 513>
LayerCount: 2
Fore
SplineSet
222 513 m 1
 341 513 l 1
 488 649 l 1
 488 172 l 1
 341 308 l 1
 222 308 l 1
 222 513 l 1
EndSplineSet
Validated: 1
EndChar

StartChar: uni00B2
Encoding: 178 178 97
Width: 1024
VWidth: 0
Flags: W
HStem: 629 20G<402.853 423>
VStem: 175 248<308 513> 510 48<342.396 479.161>
LayerCount: 2
Fore
SplineSet
501 533 m 1
 503 531 l 2
 537 500 558 458 558 411 c 1
 558 364 537 321 503 290 c 2
 501 288 l 1
 481 333 l 1
 499 354 510 381 510 411 c 1
 510 440 499 467 481 489 c 1
 501 533 l 1
175 513 m 1
 286 513 l 1
 423 649 l 1
 423 172 l 1
 286 308 l 1
 175 308 l 1
 175 513 l 1
EndSplineSet
Validated: 1
EndChar

StartChar: uni00B3
Encoding: 179 179 98
Width: 1024
VWidth: 0
Flags: W
HStem: 649 28G<352.853 373 517.5 578>
VStem: 125 248<308 513> 461 48<342.928 478.613> 557 48<319.857 501.689> 651 48<303.063 518.922>
LayerCount: 2
Fore
SplineSet
526 697 m 1
 630 637 699 531 699 411 c 0
 699 291 630 185 526 124 c 1
 509 165 l 1
 596 219 651 309 651 411 c 0
 651 513 596 603 509 657 c 1
 526 697 l 1
489 618 m 1
 501 610 512 602 522 593 c 0
 573 546 605 482 605 411 c 0
 605 340 573 275 522 229 c 0
 512 220 501 212 489 204 c 1
 470 245 l 1
 476 250 482 254 488 259 c 0
 531 298 557 352 557 411 c 0
 557 470 531 523 488 562 c 0
 482 567 476 572 470 576 c 1
 489 618 l 1
451 533 m 1
 453 531 l 2
 487 500 509 458 509 411 c 1
 509 364 487 321 453 290 c 2
 451 288 l 1
 431 333 l 1
 449 354 461 381 461 411 c 1
 461 440 449 467 431 489 c 1
 451 533 l 1
125 513 m 1
 236 513 l 1
 373 649 l 1
 373 172 l 1
 236 308 l 1
 125 308 l 1
 125 513 l 1
EndSplineSet
Validated: 1
EndChar

StartChar: guillemotright
Encoding: 187 187 99
Width: 1024
VWidth: 0
Flags: W
HStem: -7 836<181 643>
VStem: -6 258<276.879 545.121>
LayerCount: 2
Fore
SplineSet
445 390 m 1
 445 237 l 1
 664 411 l 1
 445 585 l 1
 445 432 l 1
 252 585 l 1
 252 237 l 1
 445 390 l 1
412 829 m 0
 643 829 830 642 830 411 c 0
 830 180 643 -7 412 -7 c 0
 181 -7 -6 180 -6 411 c 0
 -6 642 181 829 412 829 c 0
EndSplineSet
Validated: 1
EndChar
